<?xml version="1.0" encoding="UTF-8"?>
<svg id="Layer_1" data-name="Layer 1" xmlns="http://www.w3.org/2000/svg" viewBox="0 0 1451.32 672.06">
  <defs>
    <style>
      .cls-1 {
        fill: #00458c;
      }
    </style>
  </defs>
  <g>
    <path class="cls-1" d="M361.29,385.31h-144.95c-1.18,0-2.24.75-2.63,1.86l-23.83,67.69c-.66,1.86-2.41,3.11-4.39,3.11h-50.99c-3.22,0-5.46-3.19-4.38-6.22L254.2,104.93c.66-1.85,2.41-3.08,4.38-3.08h60.99c1.96,0,3.72,1.23,4.38,3.08l124.08,346.83c1.08,3.03-1.16,6.22-4.38,6.22h-51.51c-1.97,0-3.73-1.25-4.39-3.11l-23.83-67.69c-.39-1.12-1.45-1.86-2.63-1.86ZM345.6,334.02l-53.9-154.07c-.87-2.49-4.39-2.49-5.27,0l-54.38,154.07c-.64,1.82.71,3.72,2.63,3.72h108.28c1.92,0,3.27-1.9,2.63-3.71Z"/>
    <path class="cls-1" d="M554.54,83.97v369.35c0,2.57-2.08,4.65-4.65,4.65h-49.03c-2.57,0-4.65-2.08-4.65-4.65V83.97c0-2.57,2.08-4.65,4.65-4.65h49.03c2.57,0,4.65,2.08,4.65,4.65Z"/>
    <path class="cls-1" d="M680.32,83.97v369.35c0,2.57-2.08,4.65-4.65,4.65h-49.03c-2.57,0-4.65-2.08-4.65-4.65V83.97c0-2.57,2.08-4.65,4.65-4.65h49.03c2.57,0,4.65,2.08,4.65,4.65Z"/>
    <path class="cls-1" d="M1321.22,184.66l-169.07,405.16c-.72,1.73-2.42,2.86-4.29,2.86h-50.29c-3.32,0-5.57-3.38-4.29-6.45l53.88-128.93c.47-1.13.48-2.39.03-3.52l-107.77-269.19c-1.22-3.06,1.03-6.38,4.32-6.38h54.87c1.95,0,3.69,1.21,4.36,3.04l75.62,204.91c.89,2.42,4.3,2.44,5.22.03l78.58-205c.69-1.8,2.42-2.99,4.34-2.99h50.2c3.32,0,5.57,3.38,4.29,6.44Z"/>
    <g>
      <path class="cls-1" d="M1006.08,392.99c5.67-9.7,10.05-20.05,13.23-31,.37-1.28.17-2.66-.55-3.78-6.66-10.38-40.58-62.54-40.58-62.54-13.35-20.03-33.99-26.45-42.7-28.34-1.78-.39-3.22,1.34-2.62,3.06,14.41,41.55-.62,89.22-39.08,114.32-2.61,1.7-5.29,3.23-8.01,4.65-1.2.63-1.62,2.13-.87,3.27l22.95,35.17c3.36,5.15,7.33,9.66,11.74,13.51,9.22,8.04,22.69,8.96,33.45,3.14l.06-.03c22.34-12.11,39.99-29.24,52.96-51.43Z"/>
      <path class="cls-1" d="M869.67,249.33c2.6-1.7,5.27-3.21,7.99-4.62,1.22-.63,1.64-2.16.89-3.31l-22.94-35.16c-3.31-5.07-7.22-9.53-11.57-13.33-9.79-8.57-24.04-9.8-35.46-3.56h0c-21.83,11.94-39.06,29-51.68,51.17-5.57,9.78-9.85,20.21-12.96,31.25-.36,1.27-.15,2.63.56,3.75,6.65,10.39,40.79,62.86,40.79,62.86,17.39,23.42,35.38,27.84,43.03,28.78,1.73.21,3.02-1.44,2.44-3.09-5.9-16.73-7.13-34.85-3.37-52.72,5.4-25.71,20.42-47.73,42.3-62Z"/>
      <path class="cls-1" d="M882.86,188.43l28.25,43.29c.93,1.43,2.57,2.2,4.27,2.06,9.27-.73,18.7-.19,28.07,1.78,25.71,5.41,47.72,20.42,62,42.3l17.41,26.68c.65,1,2.25.46,2.17-.73-1.64-23.42-7.76-44.53-18.44-63.3-12.62-22.17-29.85-39.22-51.68-51.17-21.84-11.94-46.23-17.91-73.18-17.91-2.5,0-4.98.07-7.43.19-1.99.1-2.88,2.49-1.52,3.95,3.66,3.94,7.04,8.22,10.08,12.86Z"/>
      <path class="cls-1" d="M880.6,445.59l-28.24-43.26c-.94-1.43-2.58-2.21-4.29-2.06-2.51.21-5.02.34-7.55.34-6.81,0-13.67-.71-20.5-2.15-25.71-5.4-47.73-20.42-62-42.3l-17.39-26.64c-.65-1-2.25-.46-2.17.73,1.63,23.47,7.59,44.48,17.92,62.99,12.28,22,29.16,39.06,50.65,51.17,21.49,12.11,45.54,18.17,72.15,18.17,3.31,0,6.58-.12,9.82-.33,1.99-.13,2.91-2.47,1.55-3.94-3.63-3.93-6.97-8.16-9.95-12.73Z"/>
      <path class="cls-1" d="M876,357.44c14.59-9.52,24.61-24.23,28.23-41.43,3.09-14.73,1.11-29.68-5.5-42.83-.56-1.12-1.96-1.61-3.09-1.08-2.8,1.3-5.54,2.78-8.17,4.5-14.59,9.52-24.62,24.23-28.23,41.43-3.09,14.73-1.11,29.67,5.5,42.82.56,1.12,1.95,1.61,3.09,1.08,2.81-1.29,5.55-2.77,8.18-4.49Z"/>
    </g>
  </g>
  <g>
    <path class="cls-1" d="M136.98,587.65c-4.82-3.39-7.24-8.16-7.24-14.31,0-.64.07-1.61.21-2.89h15.33c-.29,3,.52,5.47,2.41,7.4,1.89,1.93,4.66,2.89,8.31,2.89s6.52-.77,8.63-2.3c2.11-1.54,3.16-3.73,3.16-6.59,0-2.64-1.09-4.75-3.27-6.32-2.18-1.57-5.59-3.32-10.24-5.25-4.29-1.79-7.77-3.43-10.45-4.93-2.68-1.5-4.97-3.59-6.86-6.27-1.89-2.68-2.84-6.06-2.84-10.13,0-4.64,1.2-8.68,3.59-12.11,2.39-3.43,5.68-6.07,9.86-7.93,4.18-1.86,8.95-2.79,14.31-2.79s9.88.88,13.77,2.63c3.89,1.75,6.82,4.23,8.79,7.45,1.96,3.22,2.8,6.97,2.52,11.25h-15.97l.11-1.18c0-2.36-.88-4.29-2.63-5.79-1.75-1.5-4.2-2.25-7.34-2.25-3.36,0-6.07.79-8.15,2.36-2.07,1.57-3.11,3.72-3.11,6.43,0,1.79.59,3.34,1.77,4.66,1.18,1.32,2.63,2.47,4.34,3.43,1.71.96,4.18,2.2,7.4,3.7,4.22,1.86,7.68,3.61,10.4,5.25,2.71,1.65,5.04,3.82,6.97,6.54,1.93,2.72,2.89,6.04,2.89,9.97,0,4.29-1.16,8.11-3.48,11.47-2.32,3.36-5.61,5.99-9.86,7.88-4.25,1.89-9.2,2.84-14.85,2.84-7.5,0-13.67-1.7-18.49-5.09Z"/>
    <path class="cls-1" d="M277.66,528.85l-3.43,19.4h25.19l-2.04,11.58h-25.19l-3.54,20.26h28.41l-2.14,11.9h-43.52l13.29-74.93h43.41l-2.04,11.79h-28.41Z"/>
    <path class="cls-1" d="M426.12,522.37c3.93,3.47,5.9,7.99,5.9,13.56,0,1.36-.11,2.75-.32,4.18-.86,4.86-3.06,9.27-6.59,13.24-3.54,3.97-8.27,6.74-14.2,8.31l12.54,30.33h-17.47l-11.15-29.16h-7.18l-5.15,29.16h-15.11l13.29-74.82h28.08c7.65,0,13.43,1.73,17.36,5.2ZM416.47,537.86c0-2.71-.86-4.82-2.57-6.32-1.72-1.5-4.32-2.25-7.83-2.25h-12.54l-3.97,22.4h12.54c4,0,7.2-1,9.59-3,2.39-2,3.91-4.75,4.56-8.25.14-1.29.21-2.14.21-2.57Z"/>
    <path class="cls-1" d="M518.51,517.17l9.97,59.49,31.08-59.49h15.97l-40.62,74.82h-18.22l-14.26-74.82h16.08Z"/>
    <path class="cls-1" d="M658.5,517.17l-13.18,74.82h-15.11l13.29-74.82h15.01Z"/>
    <path class="cls-1" d="M730.48,534.69c4.32-5.82,9.65-10.36,15.97-13.61,6.32-3.25,13.06-4.88,20.21-4.88,8.36,0,15.33,2.14,20.9,6.43s8.93,10.22,10.08,17.79h-17.26c-1.14-3.43-3.11-6.02-5.9-7.77-2.79-1.75-6.22-2.63-10.29-2.63-4.36,0-8.41,1-12.17,3-3.75,2-6.9,4.86-9.43,8.58-2.54,3.72-4.23,8-5.09,12.86-.36,2.29-.54,4.18-.54,5.68,0,5.79,1.66,10.36,4.98,13.72,3.32,3.36,7.84,5.04,13.56,5.04,4.07,0,7.82-.89,11.25-2.68,3.43-1.79,6.32-4.4,8.68-7.82h17.26c-3.86,7.65-9.31,13.6-16.35,17.85-7.04,4.25-14.74,6.38-23.1,6.38-6.29,0-11.84-1.27-16.67-3.81-4.82-2.54-8.56-6.13-11.2-10.77-2.64-4.64-3.97-9.97-3.97-15.97,0-2.5.21-5.04.64-7.61,1.29-7.36,4.09-13.95,8.41-19.78Z"/>
    <path class="cls-1" d="M886.5,528.85l-3.43,19.4h25.19l-2.04,11.58h-25.19l-3.54,20.26h28.41l-2.14,11.9h-43.52l13.29-74.93h43.41l-2.04,11.79h-28.41Z"/>
    <path class="cls-1" d="M986.13,587.65c-4.82-3.39-7.24-8.16-7.24-14.31,0-.64.07-1.61.21-2.89h15.33c-.29,3,.52,5.47,2.41,7.4,1.89,1.93,4.66,2.89,8.31,2.89s6.52-.77,8.63-2.3c2.11-1.54,3.16-3.73,3.16-6.59,0-2.64-1.09-4.75-3.27-6.32-2.18-1.57-5.59-3.32-10.24-5.25-4.29-1.79-7.77-3.43-10.45-4.93-2.68-1.5-4.97-3.59-6.86-6.27-1.89-2.68-2.84-6.06-2.84-10.13,0-4.64,1.2-8.68,3.59-12.11,2.39-3.43,5.68-6.07,9.86-7.93,4.18-1.86,8.95-2.79,14.31-2.79s9.88.88,13.77,2.63c3.89,1.75,6.82,4.23,8.79,7.45,1.96,3.22,2.8,6.97,2.52,11.25h-15.97l.11-1.18c0-2.36-.88-4.29-2.63-5.79-1.75-1.5-4.2-2.25-7.34-2.25-3.36,0-6.07.79-8.15,2.36-2.07,1.57-3.11,3.72-3.11,6.43,0,1.79.59,3.34,1.77,4.66,1.18,1.32,2.63,2.47,4.34,3.43,1.71.96,4.18,2.2,7.4,3.7,4.22,1.86,7.68,3.61,10.4,5.25,2.71,1.65,5.04,3.82,6.97,6.54,1.93,2.72,2.89,6.04,2.89,9.97,0,4.29-1.16,8.11-3.48,11.47-2.32,3.36-5.61,5.99-9.86,7.88-4.25,1.89-9.2,2.84-14.85,2.84-7.5,0-13.67-1.7-18.49-5.09Z"/>
  </g>
</svg>